<svg width="44" height="59" viewBox="0 0 44 59" fill="none" xmlns="http://www.w3.org/2000/svg">
<path d="M20.4438 34C20.143 34 19.8421 33.9 19.6415 33.6C14.2262 27.5 12.9225 26.1 12.6217 25.7C11.9197 24.8 11.5186 23.6 11.5186 22.4C11.5186 19.4 13.9254 17 17.0342 17C18.3379 17 19.5413 17.5 20.5441 18.3C21.5469 17.5 22.8506 17 24.054 17C27.0625 17 29.5696 19.4 29.5696 22.4C29.5696 23.7 29.0682 24.9 28.266 25.8L21.2461 33.7C21.0455 33.9 20.8449 34 20.4438 34ZM14.4268 24.5C14.7276 24.9 17.9367 28.5 20.5441 31.4L26.7617 24.4C27.2631 23.9 27.4637 23.2 27.4637 22.4C27.4637 20.6 25.9594 19.1 24.1543 19.1C23.1515 19.1 22.1486 19.6 21.4467 20.4C21.1458 20.7 20.845 20.8 20.5441 20.8C20.2432 20.8 19.9424 20.6 19.7418 20.4C19.0398 19.6 18.037 19.1 17.0342 19.1C15.2291 19.1 13.7248 20.6 13.7248 22.4C13.6245 23.3 14.0257 24 14.4268 24.5C14.3265 24.5 14.3265 24.5 14.4268 24.5Z" fill="black"/>
<rect x="24" y="8" width="20" height="20" rx="10" fill="#7DB54F"/>
<path d="M30.1309 19.76H31.5309V14.92L31.6309 14.33L31.2309 14.8L30.1309 15.59L29.7509 15.08L31.9509 13.38H32.3109V19.76H33.6809V20.5H30.1309V19.76ZM37.9601 15.09C37.9601 15.4433 37.8934 15.8067 37.7601 16.18C37.6334 16.5467 37.4634 16.9167 37.2501 17.29C37.0434 17.6633 36.8101 18.03 36.5501 18.39C36.2901 18.7433 36.0301 19.08 35.7701 19.4L35.2801 19.83V19.87L35.9201 19.76H38.1001V20.5H34.1201V20.21C34.2668 20.0567 34.4434 19.8667 34.6501 19.64C34.8568 19.4133 35.0701 19.1633 35.2901 18.89C35.5168 18.61 35.7368 18.3167 35.9501 18.01C36.1701 17.6967 36.3668 17.38 36.5401 17.06C36.7201 16.74 36.8634 16.4233 36.9701 16.11C37.0768 15.7967 37.1301 15.5 37.1301 15.22C37.1301 14.8933 37.0368 14.6233 36.8501 14.41C36.6634 14.19 36.3801 14.08 36.0001 14.08C35.7468 14.08 35.5001 14.1333 35.2601 14.24C35.0201 14.34 34.8134 14.4567 34.6401 14.59L34.3101 14.02C34.5434 13.82 34.8201 13.6633 35.1401 13.55C35.4601 13.4367 35.8034 13.38 36.1701 13.38C36.4568 13.38 36.7101 13.4233 36.9301 13.51C37.1501 13.59 37.3368 13.7067 37.4901 13.86C37.6434 14.0133 37.7601 14.1967 37.8401 14.41C37.9201 14.6167 37.9601 14.8433 37.9601 15.09Z" fill="white"/>
</svg>
